# xmcd
#
# Track frame offsets: 
#        197
#        9835
#        12758
#        24456
#        37480
#        48009
#        58816
#        64532
#        66766
#        71496
#        75204
#        79925
#        92417
#        111962
#        116256
#        120040
#        132706
#        137657
#        141420
#        145840
#
# Disc length: 2127 seconds
#
# Revision: 2
# Processed by: cddbd v1.5.1PL2 Copyright (c) Steve Scherf et al.
# Submitted via: ExactAudioCopy v0.90b4
#
DISCID=07084d14
DTITLE=Tim Wilson - Tuned Up
DYEAR=1997
DGENRE=Comedy
TTITLE0=Dale Darryl Waltrip Richard Petty Rusty Awesome Bill Irvan Gor
TTITLE0=don Earnhardt Smith Johnson, Jr.
TTITLE1=Clinton
TTITLE2=The Wizard and Auntie Em
TTITLE3=Dance Me To Death
TTITLE4=Fireworks In Tennessee
TTITLE5=Bondo Jones (Demolition Derby Man)
TTITLE6=Assault Weapons
TTITLE7=Amy Carter
TTITLE8=Uncle B.S. - 1492
TTITLE9=Uncle B.S. - March 1836
TTITLE10=Uncle B.S. - Summer '56
TTITLE11=I Married A Woman Who Talks Like Jerry Reed
TTITLE12=Family Reunion
TTITLE13=The Braves
TTITLE14=Strom Thurmond
TTITLE15=If You Try To Save This Marriage Again (I'll Kill You)
TTITLE16=Uncle B.S. - June 6, 1944
TTITLE17=Uncle B.S. - August 6, 1945
TTITLE18=Uncle B.S. - June, 1876
TTITLE19=Neil Young and Motel 6
EXTD=Originally Released May 6, 1997\n\nAMG EXPERT REVIEW: N/A\n\nHalf
EXTD=com Details \nProducer: Dean Daughtry 
EXTT0=
EXTT1=
EXTT2=
EXTT3=
EXTT4=
EXTT5=
EXTT6=
EXTT7=
EXTT8=
EXTT9=
EXTT10=
EXTT11=
EXTT12=
EXTT13=
EXTT14=
EXTT15=
EXTT16=
EXTT17=
EXTT18=
EXTT19=
PLAYORDER=
